<svg xmlns="http://www.w3.org/2000/svg" width="1600" height="900" viewBox="0 0 1600 900" style="font-family:'Apple SD Gothic Neo','Malgun Gothic',sans-serif"><defs><marker id="fkArrow" markerWidth="8" markerHeight="8" refX="7" refY="4" orient="auto"><path d="M1 1 L7 4 L1 7" fill="none" stroke="#7b8e82" stroke-width="1.5"/></marker></defs><rect x="0" y="0" width="1600" height="900" rx="0" fill="#f8faf8" stroke="none"/><text x="48" y="40" fill="#0f5b45" font-size="14" font-weight="700" >SKALog / DATA ARCHITECTURE</text><text x="48" y="88" fill="#183d2c" font-size="34" font-weight="700" >회원 · 세션 데이터 모델</text><text x="48" y="121" fill="#6a8071" font-size="16" font-weight="400" >전체 컬럼 · 데이터 타입 · PK / FK / UQ · ● NOT NULL / ○ NULL 허용</text><g class="entity" data-table="users" tabindex="0" role="button" aria-label="users 상세"><rect class="card" x="48" y="155" width="740" height="629" rx="12" fill="#fff" stroke="#d2ded6"/><rect x="48" y="155" width="740" height="7" rx="3" fill="#0f5b45" stroke="none"/><text x="68" y="193" fill="#0f5b45" font-size="25" font-weight="700" >사용자</text><text x="68" y="220" fill="#5b7164" font-size="17" font-weight="500" >users</text><text x="768" y="193" fill="#6c7e72" font-size="13" font-weight="500" text-anchor="end">18 컬럼</text><path d="M64 235 H772" stroke="#e0e8e2"/><rect x="56" y="243" width="724" height="27" rx="3" fill="#f5f8f5" stroke="none"/><text x="63" y="262" fill="#0f5b45" font-size="10" font-weight="700" >PK</text><text x="125" y="262" fill="#263f31" font-size="16" font-weight="700" >id</text><text x="753" y="262" fill="#60756a" font-size="13" font-weight="400" text-anchor="end">bigint</text><text x="774" y="262" fill="#0f5b45" font-size="11" font-weight="400" text-anchor="end">●</text><text x="63" y="290" fill="#0f5b45" font-size="10" font-weight="700" >UQ</text><text x="125" y="290" fill="#263f31" font-size="16" font-weight="400" >email</text><text x="753" y="290" fill="#60756a" font-size="13" font-weight="400" text-anchor="end">varchar(254)</text><text x="774" y="290" fill="#0f5b45" font-size="11" font-weight="400" text-anchor="end">●</text><rect x="56" y="299" width="724" height="27" rx="3" fill="#f5f8f5" stroke="none"/><text x="63" y="318" fill="#0f5b45" font-size="10" font-weight="700" ></text><text x="125" y="318" fill="#263f31" font-size="16" font-weight="400" >password_hash</text><text x="753" y="318" fill="#60756a" font-size="13" font-weight="400" text-anchor="end">varchar(255)</text><text x="774" y="318" fill="#0f5b45" font-size="11" font-weight="400" text-anchor="end">●</text><text x="63" y="346" fill="#0f5b45" font-size="10" font-weight="700" ></text><text x="125" y="346" fill="#263f31" font-size="16" font-weight="400" >name</text><text x="753" y="346" fill="#60756a" font-size="13" font-weight="400" text-anchor="end">varchar(100)</text><text x="774" y="346" fill="#0f5b45" font-size="11" font-weight="400" text-anchor="end">●</text><rect x="56" y="355" width="724" height="27" rx="3" fill="#f5f8f5" stroke="none"/><text x="63" y="374" fill="#0f5b45" font-size="10" font-weight="700" ></text><text x="125" y="374" fill="#263f31" font-size="16" font-weight="400" >role</text><text x="753" y="374" fill="#60756a" font-size="13" font-weight="400" text-anchor="end">user_role</text><text x="774" y="374" fill="#0f5b45" font-size="11" font-weight="400" text-anchor="end">●</text><text x="63" y="402" fill="#0f5b45" font-size="10" font-weight="700" ></text><text x="125" y="402" fill="#263f31" font-size="16" font-weight="400" >status</text><text x="753" y="402" fill="#60756a" font-size="13" font-weight="400" text-anchor="end">user_status</text><text x="774" y="402" fill="#0f5b45" font-size="11" font-weight="400" text-anchor="end">●</text><rect x="56" y="411" width="724" height="27" rx="3" fill="#f5f8f5" stroke="none"/><text x="63" y="430" fill="#0f5b45" font-size="10" font-weight="700" >UQ</text><text x="125" y="430" fill="#263f31" font-size="16" font-weight="400" >p_code</text><text x="753" y="430" fill="#60756a" font-size="13" font-weight="400" text-anchor="end">varchar(4)</text><text x="774" y="430" fill="#0f5b45" font-size="11" font-weight="400" text-anchor="end">○</text><text x="63" y="458" fill="#0f5b45" font-size="10" font-weight="700" >UQ</text><text x="125" y="458" fill="#263f31" font-size="16" font-weight="400" >employee_no</text><text x="753" y="458" fill="#60756a" font-size="13" font-weight="400" text-anchor="end">varchar(5)</text><text x="774" y="458" fill="#0f5b45" font-size="11" font-weight="400" text-anchor="end">○</text><rect x="56" y="467" width="724" height="27" rx="3" fill="#f5f8f5" stroke="none"/><text x="63" y="486" fill="#0f5b45" font-size="10" font-weight="700" ></text><text x="125" y="486" fill="#263f31" font-size="16" font-weight="400" >class_number</text><text x="753" y="486" fill="#60756a" font-size="13" font-weight="400" text-anchor="end">int</text><text x="774" y="486" fill="#0f5b45" font-size="11" font-weight="400" text-anchor="end">○</text><text x="63" y="514" fill="#0f5b45" font-size="10" font-weight="700" ></text><text x="125" y="514" fill="#263f31" font-size="16" font-weight="400" >email_verified_at</text><text x="753" y="514" fill="#60756a" font-size="13" font-weight="400" text-anchor="end">timestamp</text><text x="774" y="514" fill="#0f5b45" font-size="11" font-weight="400" text-anchor="end">○</text><rect x="56" y="523" width="724" height="27" rx="3" fill="#f5f8f5" stroke="none"/><text x="63" y="542" fill="#0f5b45" font-size="10" font-weight="700" >FK</text><text x="125" y="542" fill="#263f31" font-size="16" font-weight="400" >approved_by</text><text x="753" y="542" fill="#60756a" font-size="13" font-weight="400" text-anchor="end">bigint</text><text x="774" y="542" fill="#0f5b45" font-size="11" font-weight="400" text-anchor="end">○</text><text x="63" y="570" fill="#0f5b45" font-size="10" font-weight="700" ></text><text x="125" y="570" fill="#263f31" font-size="16" font-weight="400" >approved_at</text><text x="753" y="570" fill="#60756a" font-size="13" font-weight="400" text-anchor="end">timestamp</text><text x="774" y="570" fill="#0f5b45" font-size="11" font-weight="400" text-anchor="end">○</text><rect x="56" y="579" width="724" height="27" rx="3" fill="#f5f8f5" stroke="none"/><text x="63" y="598" fill="#0f5b45" font-size="10" font-weight="700" ></text><text x="125" y="598" fill="#263f31" font-size="16" font-weight="400" >rejected_reason</text><text x="753" y="598" fill="#60756a" font-size="13" font-weight="400" text-anchor="end">varchar(500)</text><text x="774" y="598" fill="#0f5b45" font-size="11" font-weight="400" text-anchor="end">○</text><text x="63" y="626" fill="#0f5b45" font-size="10" font-weight="700" ></text><text x="125" y="626" fill="#263f31" font-size="16" font-weight="400" >deactivated_at</text><text x="753" y="626" fill="#60756a" font-size="13" font-weight="400" text-anchor="end">timestamp</text><text x="774" y="626" fill="#0f5b45" font-size="11" font-weight="400" text-anchor="end">○</text><rect x="56" y="635" width="724" height="27" rx="3" fill="#f5f8f5" stroke="none"/><text x="63" y="654" fill="#0f5b45" font-size="10" font-weight="700" ></text><text x="125" y="654" fill="#263f31" font-size="16" font-weight="400" >last_login_at</text><text x="753" y="654" fill="#60756a" font-size="13" font-weight="400" text-anchor="end">timestamp</text><text x="774" y="654" fill="#0f5b45" font-size="11" font-weight="400" text-anchor="end">○</text><text x="63" y="682" fill="#0f5b45" font-size="10" font-weight="700" ></text><text x="125" y="682" fill="#263f31" font-size="16" font-weight="400" >revision</text><text x="753" y="682" fill="#60756a" font-size="13" font-weight="400" text-anchor="end">int</text><text x="774" y="682" fill="#0f5b45" font-size="11" font-weight="400" text-anchor="end">●</text><rect x="56" y="691" width="724" height="27" rx="3" fill="#f5f8f5" stroke="none"/><text x="63" y="710" fill="#0f5b45" font-size="10" font-weight="700" ></text><text x="125" y="710" fill="#263f31" font-size="16" font-weight="400" >created_at</text><text x="753" y="710" fill="#60756a" font-size="13" font-weight="400" text-anchor="end">timestamp</text><text x="774" y="710" fill="#0f5b45" font-size="11" font-weight="400" text-anchor="end">●</text><text x="63" y="738" fill="#0f5b45" font-size="10" font-weight="700" ></text><text x="125" y="738" fill="#263f31" font-size="16" font-weight="400" >updated_at</text><text x="753" y="738" fill="#60756a" font-size="13" font-weight="400" text-anchor="end">timestamp</text><text x="774" y="738" fill="#0f5b45" font-size="11" font-weight="400" text-anchor="end">●</text></g><g class="entity" data-table="auth_sessions" tabindex="0" role="button" aria-label="auth_sessions 상세"><rect class="card" x="812" y="155" width="740" height="377" rx="12" fill="#fff" stroke="#d2ded6"/><rect x="812" y="155" width="740" height="7" rx="3" fill="#0f5b45" stroke="none"/><text x="832" y="193" fill="#0f5b45" font-size="25" font-weight="700" >로그인 세션</text><text x="832" y="220" fill="#5b7164" font-size="17" font-weight="500" >auth_sessions</text><text x="1532" y="193" fill="#6c7e72" font-size="13" font-weight="500" text-anchor="end">9 컬럼</text><path d="M828 235 H1536" stroke="#e0e8e2"/><rect x="820" y="243" width="724" height="27" rx="3" fill="#f5f8f5" stroke="none"/><text x="827" y="262" fill="#0f5b45" font-size="10" font-weight="700" >PK</text><text x="889" y="262" fill="#263f31" font-size="16" font-weight="700" >id</text><text x="1517" y="262" fill="#60756a" font-size="13" font-weight="400" text-anchor="end">uuid</text><text x="1538" y="262" fill="#0f5b45" font-size="11" font-weight="400" text-anchor="end">●</text><text x="827" y="290" fill="#0f5b45" font-size="10" font-weight="700" >FK</text><text x="889" y="290" fill="#263f31" font-size="16" font-weight="400" >user_id</text><text x="1517" y="290" fill="#60756a" font-size="13" font-weight="400" text-anchor="end">bigint</text><text x="1538" y="290" fill="#0f5b45" font-size="11" font-weight="400" text-anchor="end">●</text><rect x="820" y="299" width="724" height="27" rx="3" fill="#f5f8f5" stroke="none"/><text x="827" y="318" fill="#0f5b45" font-size="10" font-weight="700" >UQ</text><text x="889" y="318" fill="#263f31" font-size="16" font-weight="400" >token_hash</text><text x="1517" y="318" fill="#60756a" font-size="13" font-weight="400" text-anchor="end">varchar(255)</text><text x="1538" y="318" fill="#0f5b45" font-size="11" font-weight="400" text-anchor="end">●</text><text x="827" y="346" fill="#0f5b45" font-size="10" font-weight="700" ></text><text x="889" y="346" fill="#263f31" font-size="16" font-weight="400" >expires_at</text><text x="1517" y="346" fill="#60756a" font-size="13" font-weight="400" text-anchor="end">timestamp</text><text x="1538" y="346" fill="#0f5b45" font-size="11" font-weight="400" text-anchor="end">●</text><rect x="820" y="355" width="724" height="27" rx="3" fill="#f5f8f5" stroke="none"/><text x="827" y="374" fill="#0f5b45" font-size="10" font-weight="700" ></text><text x="889" y="374" fill="#263f31" font-size="16" font-weight="400" >revoked_at</text><text x="1517" y="374" fill="#60756a" font-size="13" font-weight="400" text-anchor="end">timestamp</text><text x="1538" y="374" fill="#0f5b45" font-size="11" font-weight="400" text-anchor="end">○</text><text x="827" y="402" fill="#0f5b45" font-size="10" font-weight="700" ></text><text x="889" y="402" fill="#263f31" font-size="16" font-weight="400" >last_seen_at</text><text x="1517" y="402" fill="#60756a" font-size="13" font-weight="400" text-anchor="end">timestamp</text><text x="1538" y="402" fill="#0f5b45" font-size="11" font-weight="400" text-anchor="end">●</text><rect x="820" y="411" width="724" height="27" rx="3" fill="#f5f8f5" stroke="none"/><text x="827" y="430" fill="#0f5b45" font-size="10" font-weight="700" ></text><text x="889" y="430" fill="#263f31" font-size="16" font-weight="400" >ip_hash</text><text x="1517" y="430" fill="#60756a" font-size="13" font-weight="400" text-anchor="end">varchar(255)</text><text x="1538" y="430" fill="#0f5b45" font-size="11" font-weight="400" text-anchor="end">○</text><text x="827" y="458" fill="#0f5b45" font-size="10" font-weight="700" ></text><text x="889" y="458" fill="#263f31" font-size="16" font-weight="400" >user_agent</text><text x="1517" y="458" fill="#60756a" font-size="13" font-weight="400" text-anchor="end">varchar(500)</text><text x="1538" y="458" fill="#0f5b45" font-size="11" font-weight="400" text-anchor="end">○</text><rect x="820" y="467" width="724" height="27" rx="3" fill="#f5f8f5" stroke="none"/><text x="827" y="486" fill="#0f5b45" font-size="10" font-weight="700" ></text><text x="889" y="486" fill="#263f31" font-size="16" font-weight="400" >created_at</text><text x="1517" y="486" fill="#60756a" font-size="13" font-weight="400" text-anchor="end">timestamp</text><text x="1538" y="486" fill="#0f5b45" font-size="11" font-weight="400" text-anchor="end">●</text></g><text x="48" y="815" fill="#0f5b45" font-size="16" font-weight="700" >2개 테이블 · 27개 컬럼 · 2개 외래키</text><text x="48" y="845" fill="#718477" font-size="14" font-weight="400" >관계의 양 끝은 전체 ERD / Enum · 관계 목록에서 확인 · 테이블 클릭 시 기본값, 설명, 인덱스, CHECK 원문 표시</text><text x="1552" y="877" fill="#718477" font-size="13" font-weight="600" text-anchor="end">03 / 09</text></svg>